<svg xmlns="http://www.w3.org/2000/svg" width="838.732" height="576.567" viewBox="0 0 838.732 576.567">
  <g id="Group_265" data-name="Group 265" transform="translate(-15.824)">
    <rect id="Rectangle_4" data-name="Rectangle 4" width="110" height="123" transform="translate(151.557 268)" fill="#ccc"/>
    <path id="Path_4" data-name="Path 4" d="M95.557,576h-56l-6-48h68Z" fill="#e6e6e6"/>
    <path id="Path_5" data-name="Path 5" d="M380.729,702.284l-1.89,25.835a8.224,8.224,0,0,0,8.7,8.809l13.27-.8a4.195,4.195,0,0,0,3.815-5.2l-7.366-29.463Z" transform="translate(-172.722 -161.051)" fill="#e6e6e6"/>
    <path id="Path_6" data-name="Path 6" d="M491.724,717.561c15.618,3.653,26.774,8.846,34.1,15.874a15.035,15.035,0,0,0,9.624,4.125c4.6.242,8.355-.273,11.18-1.535h0a4.43,4.43,0,0,0,2.625-3.651,4.508,4.508,0,0,0-1.888-4.167l-37.04-26.355-15.733,6.294-3.67,3.67a3.634,3.634,0,0,0,.8,5.743Z" transform="translate(-172.722 -161.051)" fill="#e6e6e6"/>
    <path id="Path_7" data-name="Path 7" d="M443.662,295.746l-105.873-.98c.266-15.421,3.854-30.563,11.7-44.114,5.151-8.9,5.039-18.585,3.8-26.744-1.916-12.592,2.539-25.475,12.437-33.491a39.916,39.916,0,0,1,26.843-8.881l2.056.086a40.008,40.008,0,0,1,32.871,19.77,33.327,33.327,0,0,1,3.961,20.3c-.671,6.6.935,13.27,4.691,20C442.621,256.476,444.025,275.392,443.662,295.746Z" transform="translate(-172.722 -161.051)" fill="#2f2e41"/>
    <path id="Path_8" data-name="Path 8" d="M514.5,703.228l-20.779,5.421L392.534,488.213l6.324,215.015H378.079c-22.2-101.159-62.291-217.907-44.268-254.766l107.508-6.324Z" transform="translate(-172.722 -161.051)" fill="#2b40d0"/>
    <circle id="Ellipse_1" data-name="Ellipse 1" cx="28.006" cy="28.006" r="28.006" transform="translate(190.903 41.679)" fill="#ffb9b9"/>
    <path id="Path_9" data-name="Path 9" d="M416.023,282.232l-46.075-2.71c4.515-10.364,6.319-20.344,4.517-29.813H408.8C408.718,256.979,412.336,269.556,416.023,282.232Z" transform="translate(-172.722 -161.051)" fill="#ffb9b9"/>
    <path id="Path_10" data-name="Path 10" d="M272.211,289.217l-101.183,7.228,10.389-179.33,17.617-4.969,19.875,4.517,19.875-9.938,12.648,4.518Z" fill="#2b40d0"/>
    <path id="Path_11" data-name="Path 11" d="M360.914,579.458,291.8,563.649c20.551-68.148,57.573-224.051,45.623-279.61l36.137-16.262Z" transform="translate(-172.722 -161.051)" fill="#e6e6e6"/>
    <path id="Path_12" data-name="Path 12" d="M327.488,382.512l-26.2-16.262,22.343-65.439a30.871,30.871,0,0,1,13.494-16.028l7.527-4.358-4.517,65.95Z" transform="translate(-172.722 -161.051)" fill="#e6e6e6"/>
    <path id="Path_13" data-name="Path 13" d="M505.011,564.552c-21.813,12.62-76.339,19.655-100.28,10.841-1.762-61.573-5.217-235.739,5.872-309.423l39.751,16.262-3.614,48.785C427.736,372.75,482.919,518.105,505.011,564.552Z" transform="translate(-172.722 -161.051)" fill="#e6e6e6"/>
    <path id="Path_14" data-name="Path 14" d="M329.127,213.33,304.734,205.2l-32.523-37.041,5.421-46.978,54.205,75.888Z" fill="#e6e6e6"/>
    <path id="Path_15" data-name="Path 15" d="M425.4,409.545a6.785,6.785,0,0,0,8.105,5.112l20.706-4.689-2.993-13.217-20.706,4.688a6.777,6.777,0,0,0-5.112,8.105Z" transform="translate(-172.722 -161.051)" fill="#ffb9b9"/>
    <path id="Path_16" data-name="Path 16" d="M416.023,223.509c-15.556-6.4-30.919-6.859-46.075-.9l-6.324-22.586h57.819Z" transform="translate(-172.722 -161.051)" fill="#2f2e41"/>
    <path id="Path_17" data-name="Path 17" d="M444.029,394.256l11.745,21.682c19.754-5.51,36.874-22.879,53.3-43.364l-4.517-14.455-28.006,7.227Z" transform="translate(-172.722 -161.051)" fill="#e6e6e6"/>
    <path id="Path_18" data-name="Path 18" d="M435.447,349.537h-3.614c0-51.111-10.523-86.729-20.779-86.729l-.9-3.614c9.2,0,15.06,14.824,18.36,27.26C432.984,303.314,435.447,325.717,435.447,349.537Z" transform="translate(-172.722 -161.051)" fill="#3f3d56"/>
    <path id="Path_19" data-name="Path 19" d="M352.332,336.889h-3.614c0-46.809,10.6-75.888,26.2-75.888l-.9,3.614C363.221,264.615,352.332,286.963,352.332,336.889Z" transform="translate(-172.722 -161.051)" fill="#3f3d56"/>
    <circle id="Ellipse_2" data-name="Ellipse 2" cx="9.034" cy="9.034" r="9.034" transform="translate(251.884 180.355)" fill="#3f3d56"/>
    <path id="Path_20" data-name="Path 20" d="M337.877,358.571h-3.614c0-12.952,7.295-23.489,16.262-23.489V338.7C343.551,338.7,337.877,347.612,337.877,358.571Z" transform="translate(-172.722 -161.051)" fill="#3f3d56"/>
    <path id="Path_21" data-name="Path 21" d="M366.787,358.571h-3.614c0-10.959-5.674-19.875-12.648-19.875v-3.614C359.492,335.082,366.787,345.619,366.787,358.571Z" transform="translate(-172.722 -161.051)" fill="#3f3d56"/>
    <circle id="Ellipse_3" data-name="Ellipse 3" cx="3.614" cy="3.614" r="3.614" transform="translate(188.644 194.809)" fill="#3f3d56"/>
    <circle id="Ellipse_4" data-name="Ellipse 4" cx="3.614" cy="3.614" r="3.614" transform="translate(159.735 194.809)" fill="#3f3d56"/>
    <path id="Path_22" data-name="Path 22" d="M118.177,165.193l22.547,4.026,51.534,73.276-27.378-6.442Z" fill="#a3a4af"/>
    <path id="Path_23" data-name="Path 23" d="M286.9,325.347a1.918,1.918,0,0,0-1.573,2.971L333.5,401.406a1.911,1.911,0,0,0,1.16.81l22.413,5.273a1.914,1.914,0,0,0,2-2.965l-52.889-75.2a1.9,1.9,0,0,0-1.229-.783l-17.7-3.16a2.079,2.079,0,0,0-.361-.033Z" transform="translate(-172.722 -161.051)" fill="#3f3d56"/>
    <path id="Path_24" data-name="Path 24" d="M316.949,377.6l1.339,13.485,21.126-2.1a6.776,6.776,0,0,0-1.338-13.485Z" transform="translate(-172.722 -161.051)" fill="#ffb9b9"/>
    <path id="Path_25" data-name="Path 25" d="M298.578,376.042a17.427,17.427,0,0,0,17.406,17.311h3.474l2.529-21.076-20.94-7.538Z" transform="translate(-172.722 -161.051)" fill="#e6e6e6"/>
    <rect id="Rectangle_5" data-name="Rectangle 5" width="412" height="217" transform="translate(442.557)" fill="#e6e6e6"/>
    <path id="Path_26" data-name="Path 26" d="M627.278,366.051h388v-193h-388Z" transform="translate(-172.722 -161.051)" fill="#fff"/>
    <rect id="Rectangle_6" data-name="Rectangle 6" width="138" height="138" transform="translate(484.557 40)" fill="#3f3d56"/>
    <path id="Icon_metro-heartbeat" data-name="Icon metro-heartbeat" d="M66.088,48.869H81.223a5.038,5.038,0,0,1-.5.521q-.248.223-.447.372l-.149.2L49.216,79.735a3.115,3.115,0,0,1-4.367,0L13.885,49.862a4.686,4.686,0,0,1-1.042-.993H31.154a3.127,3.127,0,0,0,1.96-.67,2.98,2.98,0,0,0,1.117-1.712L37.7,32.543l9.428,33.1a3.163,3.163,0,0,0,1.141,1.638,3.1,3.1,0,0,0,1.935.645,3.028,3.028,0,0,0,1.886-.645,3.163,3.163,0,0,0,1.141-1.638l7.245-24.067,2.779,5.558a2.973,2.973,0,0,0,2.828,1.737ZM91.495,27.63q0,7.2-5.111,14.887H68.073L62.565,31.551a2.993,2.993,0,0,0-1.265-1.34,3.159,3.159,0,0,0-4.59,1.886l-6.4,21.338L40.582,19.393a3.115,3.115,0,0,0-1.166-1.638,3.2,3.2,0,0,0-1.96-.645,3.1,3.1,0,0,0-3.027,2.382L28.672,42.517H7.682Q2.571,34.826,2.571,27.63q0-10.917,6.3-17.07T26.29,4.407a19.778,19.778,0,0,1,6.277,1.067,25.409,25.409,0,0,1,5.955,2.878q2.754,1.811,4.739,3.4a45.765,45.765,0,0,1,3.771,3.374A45.709,45.709,0,0,1,50.8,11.751q1.985-1.588,4.739-3.4A25.4,25.4,0,0,1,61.5,5.474a19.779,19.779,0,0,1,6.277-1.067q11.116,0,17.418,6.153t6.3,17.07Z" transform="translate(503.524 66.483)" fill="#fff"/>
    <rect id="Rectangle_7" data-name="Rectangle 7" width="40" height="6" transform="translate(530.557 37)" fill="#e6e6e6"/>
    <rect id="Rectangle_8" data-name="Rectangle 8" width="138" height="138" transform="translate(660.557 40)" fill="#3f3d56"/>
    <path id="Icon_awesome-notes-medical" data-name="Icon awesome-notes-medical" d="M52.695,10.037H40.149a10.037,10.037,0,1,0-20.074,0H7.528A7.53,7.53,0,0,0,0,17.565v55.2A7.53,7.53,0,0,0,7.528,80.3H52.695a7.53,7.53,0,0,0,7.528-7.528v-55.2A7.53,7.53,0,0,0,52.695,10.037ZM30.111,6.273a3.764,3.764,0,1,1-3.764,3.764A3.755,3.755,0,0,1,30.111,6.273ZM45.167,53.95A1.258,1.258,0,0,1,43.912,55.2H35.13v8.782a1.258,1.258,0,0,1-1.255,1.255H26.347a1.258,1.258,0,0,1-1.255-1.255V55.2H16.31a1.258,1.258,0,0,1-1.255-1.255V46.422a1.258,1.258,0,0,1,1.255-1.255h8.782V36.385a1.258,1.258,0,0,1,1.255-1.255h7.528a1.258,1.258,0,0,1,1.255,1.255v8.782h8.782a1.258,1.258,0,0,1,1.255,1.255Zm0-30.111a1.258,1.258,0,0,1-1.255,1.255H16.31a1.258,1.258,0,0,1-1.255-1.255V21.329a1.258,1.258,0,0,1,1.255-1.255h27.6a1.258,1.258,0,0,1,1.255,1.255Z" transform="translate(699.445 68.351)" fill="#fff"/>
    <rect id="Rectangle_9" data-name="Rectangle 9" width="40" height="6" transform="translate(706.557 37)" fill="#e6e6e6"/>
    <path id="Path_31" data-name="Path 31" d="M197.9,671.294c14.42,19.311,44.352,21.344,44.352,21.344s6.554-29.277-7.866-48.588-44.352-21.344-44.352-21.344S183.478,651.983,197.9,671.294Z" transform="translate(-172.722 -161.051)" fill="#e6e6e6"/>
    <path id="Path_32" data-name="Path 32" d="M271.355,678.554c-9.515,12.743-29.267,14.084-29.267,14.084s-4.324-19.319,5.191-32.062,29.267-14.084,29.267-14.084S280.87,665.811,271.355,678.554Z" transform="translate(-172.722 -161.051)" fill="#e6e6e6"/>
  </g>
</svg>
