<svg xmlns="http://www.w3.org/2000/svg" xmlns:xlink="http://www.w3.org/1999/xlink" width="690.944" height="489.298" viewBox="0 0 690.944 489.298">
  <defs>
    <linearGradient id="linear-gradient" x1="0.5" y1="1" x2="0.5" gradientUnits="objectBoundingBox">
      <stop offset="0" stop-color="gray" stop-opacity="0.251"/>
      <stop offset="0.54" stop-color="gray" stop-opacity="0.122"/>
      <stop offset="1" stop-color="gray" stop-opacity="0.102"/>
    </linearGradient>
    <linearGradient id="linear-gradient-2" x1="0.5" y1="1" x2="0.5" y2="0" xlink:href="#linear-gradient"/>
  </defs>
  <g id="Group_2" data-name="Group 2" transform="translate(0.005 0.006)">
    <ellipse id="Ellipse_1" data-name="Ellipse 1" cx="60.91" cy="9.783" rx="60.91" ry="9.783" transform="translate(168.921 469.451)" fill="#6c63ff" opacity="0.1"/>
    <ellipse id="Ellipse_2" data-name="Ellipse 2" cx="76.006" cy="9.783" rx="76.006" ry="9.783" transform="translate(484.923 469.726)" fill="#6c63ff" opacity="0.1"/>
    <path id="Path_1" data-name="Path 1" d="M60.3,396.83h63.442V483.3h-58.8c-.156.888-.306,1.782-.469,2.675h59.266v69.737c-.106-.031-.2-.069-.3-.106-1.675-.663-3.338-1.363-5-2.113l-1.063-.481q-2.5-1.181-5-2.5c-.581-.306-1.163-.625-1.738-.95a104.029,104.029,0,0,1-24.929-19.478c-.213-.206-.413-.425-.625-.625-1.013-1.1-2.007-2.213-2.969-3.351l-1.063-1.25c-1.138-1.394-2.238-2.826-3.307-4.276-.156-.213-.306-.425-.469-.625a93.068,93.068,0,0,1-10.752-19.441c-.088-.206-.163-.431-.244-.625Q64.995,496.578,64,493.2c-.288-.944-.563-1.875-.8-2.857-.088-.288-.163-.569-.231-.85C59.419,475.637,59,461.241,59,446.945v-5c0-5.782.069-11.6.169-17.415,0-1.507.063-3.007.094-4.52q.131-5.757.375-11.514c.037-1.069.088-2.132.144-3.194a18.094,18.094,0,0,1,.094-1.838C60.025,401.237,60.15,399.03,60.3,396.83Z" transform="translate(-51.469 -185.422)" fill="#6c63ff" opacity="0.1"/>
    <path id="Path_2" data-name="Path 2" d="M141.7,216.432H106.9a263.8,263.8,0,0,1,18.509-25.479c5.17-6.351,10.627-12.54,16.29-18.5Z" transform="translate(-69.426 -101.303)" fill="#6c63ff" opacity="0.1"/>
    <path id="Path_3" data-name="Path 3" d="M124.642,247.09v90.928H61.4c0-.263.044-.531.063-.794.056-.719.113-1.438.175-2.15.069-.838.144-1.682.225-2.5s.169-1.819.263-2.725.181-1.825.288-2.732.2-1.813.313-2.713.213-1.813.331-2.713c.094-.75.194-1.494.294-2.244.144-1.056.294-2.119.456-3.169a2.922,2.922,0,0,1,.069-.469,216.226,216.226,0,0,1,4.657-22.829,168.831,168.831,0,0,1,7.845-23.129,173.629,173.629,0,0,1,11.8-22.729Z" transform="translate(-52.369 -129.285)" fill="#6c63ff" opacity="0.1"/>
    <path id="Path_4" data-name="Path 4" d="M186.8,270.032v86.477H322.3V270.032Zm0,89.146V433.44c.775.163,1.544.319,2.307.45,1.038.2,2.069.381,3.126.538.2.031.406.063.625.081.413.069.838.125,1.25.181,1.044.144,2.082.263,3.126.356.494.05.994.094,1.494.131l1.206.094h0c.656.05,1.306.088,1.95.106.4,0,.8.038,1.213.05h4.457c.538,0,1.075,0,1.607-.05h.038a8.425,8.425,0,0,0,1.119-.05,2.617,2.617,0,0,0,.313,0,6.462,6.462,0,0,0,.925-.044h.219l2.094-.163c.688-.062,1.381-.144,2.082-.219l1.425-.169a124.677,124.677,0,0,0,17.159-3.651c12.64-3.526,25-8.458,37.638-12.071,16.334-4.657,34.381-6.945,50.165-1.25V359.178ZM322.3,173.759V58.634A174.2,174.2,0,0,0,278.278,63.8c-34.312,8.62-65.1,27.317-91.478,51.2v58.76h6.8v2.669h-6.8v90.94H322.3V176.429H221.525v-2.669Zm174.048-38.888a56.127,56.127,0,0,1-24.56-7.139c-14.6-7.939-26.254-20.2-39.282-30.543-27.067-21.547-60.635-34.55-95.072-37.775V173.759H530.876l.481-.506Zm17.622-3.126,18.684,20.5V126.37c-6.257.775-11.74,2.619-18.659,5.351Zm18.684,320.135v-92.7H492.845c-.106-.394-.213-.794-.338-1.194.119.4.219.8.331,1.194H337.463V426.22c1.475,1.094,2.932,2.244,4.376,3.413h0c1.556,1.25,3.094,2.569,4.638,3.863l1.557,1.288c.744.625,1.494,1.25,2.25,1.838q2.25,1.825,4.544,3.6c.756.625,1.532,1.188,2.3,1.775a313.316,313.316,0,0,0,38.525,25.2q4.52,2.5,9.12,4.882c2.044,1.044,4.1,2.082,6.163,3.088q4.651,2.269,9.377,4.376h0a344.335,344.335,0,0,0,91.265,26.586q10.5,1.55,21.072,2.438V451.875h.625Zm-195.2-275.452v90.934h195.22V176.429Zm0,93.6v86.477h195.22V270.032ZM547.835,126.258v28.867l23.848-26.167q-11.852-1.913-23.848-2.732Zm0,143.805v86.446H737.711V270.032ZM737.017,458.744l.669-99.567H547.835V509.559a340.48,340.48,0,0,0,36.694-.438h.212q8.752-.55,17.422-1.6h.131a320.828,320.828,0,0,0,89.515-23.885m82.514-199.365c-.713-1.682-1.456-3.351-2.213-5-1.413-3.126-2.907-6.164-4.445-9.2H752.851v86.439h37.456c-.019-24.479-6.214-49.483-15.965-72.268Zm-21.472,74.938v85.639a122.682,122.682,0,0,0,25.886-34.912c7.72-15.928,11.252-33.174,11.539-50.74Zm0-114.344v22.5h13.427a243.8,243.8,0,0,0-13.409-22.535ZM624.079,143.223c-.988-.375-1.975-.756-2.969-1.125a271.06,271.06,0,0,0-32.074-9.639l-36.494,40.05h0l-.7.744.469.513H682.2a277.8,277.8,0,0,0-58.1-30.574ZM686,176.46H550.5l-2.663,2.438v88.465h189.9V224.512a270.548,270.548,0,0,0-51.715-48.083Z" transform="translate(-99.38 -58.63)" fill="#6c63ff" opacity="0.1"/>
    <path id="Path_5" data-name="Path 5" d="M124.642,320.46v45.064H61.4c0-.263.044-.531.063-.794.056-.719.113-1.438.175-2.15.069-.838.144-1.681.225-2.5s.169-1.819.263-2.725.181-1.825.288-2.732.2-1.813.313-2.713.213-1.813.331-2.713c.094-.75.194-1.494.294-2.244.144-1.056.294-2.119.456-3.169a2.922,2.922,0,0,1,.069-.469,216.226,216.226,0,0,1,4.657-22.829Z" transform="translate(-52.369 -156.791)" fill="#6c63ff" opacity="0.1"/>
    <path id="Path_6" data-name="Path 6" d="M60.3,396.83h63.442V483.3h-58.8c-.156.888-.306,1.782-.469,2.675h59.266v69.737c-.106-.031-.2-.069-.3-.106-1.675-.663-3.338-1.363-5-2.113l-1.063-.481q-2.5-1.181-5-2.5c-.581-.306-1.163-.625-1.738-.95a104.029,104.029,0,0,1-24.929-19.478c-.213-.206-.413-.425-.625-.625-1.013-1.1-2.007-2.213-2.969-3.351l-1.063-1.25c-1.138-1.394-2.238-2.826-3.307-4.276-.156-.213-.306-.425-.469-.625a93.068,93.068,0,0,1-10.752-19.441c-.088-.206-.163-.431-.244-.625Q64.995,496.578,64,493.2c-.288-.944-.563-1.875-.8-2.857-.088-.288-.163-.569-.231-.85C59.419,475.637,59,461.241,59,446.945v-5c0-5.782.069-11.6.169-17.415,0-1.507.063-3.007.094-4.52q.131-5.757.375-11.514c.037-1.069.088-2.132.144-3.194a18.094,18.094,0,0,1,.094-1.838C60.025,401.237,60.15,399.03,60.3,396.83Z" transform="translate(-51.469 -185.422)" fill="#6c63ff" opacity="0.1"/>
    <path id="Path_7" data-name="Path 7" d="M187.262,193.459v77.913h-47.7V193.459h6.8V167.08h27.917v26.379Z" transform="translate(-52.14 -62.64)" fill="#6c63ff" opacity="0.1"/>
    <rect id="Rectangle_1" data-name="Rectangle 1" width="47.695" height="86.471" transform="translate(87.426 211.402)" fill="#6c63ff" opacity="0.1"/>
    <path id="Path_8" data-name="Path 8" d="M186.8,539.44h47.7v71.887a124.482,124.482,0,0,1-17.159,3.644l-1.425.175c-.7.081-1.394.15-2.082.219s-1.4.119-2.094.162h-.219c-.3,0-.625.037-.919.044h-.319c-.375,0-.75.037-1.125.05h0c-.531.031-1.063.038-1.607.044h-4.426l-1.206-.044c-.625,0-1.3-.069-1.95-.112h0l-1.2-.088-1.494-.138c-1.05-.094-2.094-.213-3.126-.356l-1.25-.175-.625-.088c-1.044-.162-2.075-.338-3.126-.538-.769-.131-1.531-.294-2.307-.45Z" transform="translate(-99.38 -238.886)" fill="#6c63ff" opacity="0.1"/>
    <rect id="Rectangle_2" data-name="Rectangle 2" width="39.332" height="87.108" transform="translate(393.971 121.618)" fill="#6c63ff" opacity="0.1"/>
    <path id="Path_9" data-name="Path 9" d="M575.806,338.19v86.477H380.58v-37.3H484.566v22h51.9V338.19Z" transform="translate(-142.498 -126.788)" fill="#6c63ff" opacity="0.1"/>
    <path id="Path_10" data-name="Path 10" d="M623.665,631.439h-.625v56.728q-10.564-.894-21.066-2.432a344.35,344.35,0,0,1-91.3-26.642q-12.583-5.663-24.654-12.365a314.592,314.592,0,0,1-38.532-25.2q-4.6-3.526-9.083-7.214c-2.069-1.707-4.126-3.457-6.207-5.157-1.444-1.169-2.9-2.319-4.376-3.419V538.724H583.19c-.106-.4-.213-.8-.325-1.194.119.394.231.794.338,1.194H623.04V631.4C623.253,631.408,623.459,631.427,623.665,631.439Z" transform="translate(-189.738 -238.17)" fill="#6c63ff" opacity="0.1"/>
    <path id="Path_11" data-name="Path 11" d="M888.849,223.807H863.22v-7.964h11.489V192.12q1.494.544,2.976,1.119v22.6h11.164Z" transform="translate(-352.967 -108.677)" fill="#6c63ff" opacity="0.1"/>
    <path id="Path_12" data-name="Path 12" d="M913.535,338.018H787.714l.044.031-.056-.031H764.36V250.909h6.614V315.3H801.2V277.164h24.967V247.09h25.629v30.1H876.76V315.32h36.775Z" transform="translate(-315.905 -129.285)" fill="#6c63ff" opacity="0.1"/>
    <path id="Path_13" data-name="Path 13" d="M764.36,396.82V483.3H913.535V396.82ZM954.029,585.089l.206-68.449h-40.7V486.01H764.36V636.348a340.48,340.48,0,0,0,36.694-.438h.213q8.751-.55,17.422-1.6h.131a320.827,320.827,0,0,0,89.515-23.885" transform="translate(-315.905 -185.418)" fill="#6c63ff" opacity="0.1"/>
    <path id="Path_14" data-name="Path 14" d="M1095,539.44h34.8c-.306,17.559-3.832,34.806-11.546,50.733a122.722,122.722,0,0,1-25.879,34.912V570.076H1095Z" transform="translate(-438.875 -238.886)" fill="#6c63ff" opacity="0.1"/>
    <path id="Path_15" data-name="Path 15" d="M1131.388,491.818H1096.57V419.55h18.841C1125.162,442.335,1131.357,467.339,1131.388,491.818Z" transform="translate(-440.449 -193.94)" fill="#6c63ff" opacity="0.1"/>
    <rect id="Rectangle_3" data-name="Rectangle 3" width="21.072" height="27.311" transform="translate(412.236 145.834)" fill="#6c63ff" opacity="0.1"/>
    <rect id="Rectangle_4" data-name="Rectangle 4" width="21.072" height="6.289" transform="translate(412.236 202.444)" fill="#6c63ff" opacity="0.1"/>
    <rect id="Rectangle_5" data-name="Rectangle 5" width="21.072" height="18.347" transform="translate(412.236 211.402)" fill="#6c63ff" opacity="0.1"/>
    <rect id="Rectangle_6" data-name="Rectangle 6" width="21.072" height="27.311" transform="translate(412.236 259.053)" fill="#6c63ff" opacity="0.1"/>
    <rect id="Rectangle_7" data-name="Rectangle 7" width="21.072" height="27.311" transform="translate(412.236 315.663)" fill="#6c63ff" opacity="0.1"/>
    <path id="Path_16" data-name="Path 16" d="M727.486,675.13a3.466,3.466,0,0,1,.625.037h-.625v6.345H706.42V654.17h21.066Z" transform="translate(-294.184 -281.898)" fill="#6c63ff" opacity="0.1"/>
    <path id="Path_17" data-name="Path 17" d="M727.486,744.71v21.1q-10.564-.894-21.066-2.432V744.71Z" transform="translate(-294.184 -315.841)" fill="#6c63ff" opacity="0.1"/>
    <rect id="Rectangle_8" data-name="Rectangle 8" width="90.309" height="2.007" transform="translate(238.082 295.872)" fill="#6c63ff" opacity="0.1"/>
    <rect id="Rectangle_9" data-name="Rectangle 9" width="90.309" height="7.689" transform="translate(238.082 300.548)" fill="#6c63ff" opacity="0.1"/>
    <rect id="Rectangle_10" data-name="Rectangle 10" width="90.309" height="12.365" transform="translate(238.082 333.441)" fill="#6c63ff" opacity="0.1"/>
    <path id="Path_18" data-name="Path 18" d="M520.743,652.15v12.365H450.106q-4.6-3.513-9.089-7.214c-2.069-1.707-4.119-3.457-6.207-5.151Z" transform="translate(-192.358 -281.14)" fill="#6c63ff" opacity="0.1"/>
    <path id="Path_19" data-name="Path 19" d="M553.025,712.229v12.352h-7.458Q533,718.911,520.92,712.21Z" transform="translate(-224.641 -303.657)" fill="#6c63ff" opacity="0.1"/>
    <rect id="Rectangle_11" data-name="Rectangle 11" width="17.778" height="17.778" transform="translate(485.155 219.784)" fill="#6c63ff" opacity="0.1"/>
    <rect id="Rectangle_12" data-name="Rectangle 12" width="17.778" height="17.778" transform="translate(100.228 136.952)" fill="#6c63ff" opacity="0.1"/>
    <rect id="Rectangle_13" data-name="Rectangle 13" width="17.778" height="17.778" transform="translate(100.228 178.246)" fill="#6c63ff" opacity="0.1"/>
    <rect id="Rectangle_14" data-name="Rectangle 14" width="17.778" height="17.778" transform="translate(100.228 219.541)" fill="#6c63ff" opacity="0.1"/>
    <rect id="Rectangle_15" data-name="Rectangle 15" width="17.778" height="17.778" transform="translate(100.228 260.829)" fill="#6c63ff" opacity="0.1"/>
    <rect id="Rectangle_16" data-name="Rectangle 16" width="17.778" height="17.778" transform="translate(100.228 302.123)" fill="#6c63ff" opacity="0.1"/>
    <rect id="Rectangle_17" data-name="Rectangle 17" width="17.778" height="17.778" transform="translate(100.228 343.417)" fill="#6c63ff" opacity="0.1"/>
    <rect id="Rectangle_18" data-name="Rectangle 18" width="17.778" height="17.778" transform="translate(553.022 219.784)" fill="#6c63ff" opacity="0.1"/>
    <rect id="Rectangle_19" data-name="Rectangle 19" width="17.778" height="17.778" transform="translate(485.155 263.635)" fill="#6c63ff" opacity="0.1"/>
    <rect id="Rectangle_20" data-name="Rectangle 20" width="17.778" height="17.778" transform="translate(553.022 263.635)" fill="#6c63ff" opacity="0.1"/>
    <rect id="Rectangle_21" data-name="Rectangle 21" width="17.778" height="17.778" transform="translate(485.155 307.48)" fill="#6c63ff" opacity="0.1"/>
    <rect id="Rectangle_22" data-name="Rectangle 22" width="17.778" height="17.778" transform="translate(553.022 307.48)" fill="#6c63ff" opacity="0.1"/>
    <rect id="Rectangle_23" data-name="Rectangle 23" width="17.778" height="17.778" transform="translate(485.155 351.331)" fill="#6c63ff" opacity="0.1"/>
    <rect id="Rectangle_24" data-name="Rectangle 24" width="17.778" height="17.778" transform="translate(553.022 351.331)" fill="#6c63ff" opacity="0.1"/>
    <rect id="Rectangle_25" data-name="Rectangle 25" width="17.778" height="17.778" transform="translate(485.155 395.182)" fill="#6c63ff" opacity="0.1"/>
    <rect id="Rectangle_26" data-name="Rectangle 26" width="17.778" height="17.778" transform="translate(553.022 395.182)" fill="#6c63ff" opacity="0.1"/>
    <path id="Path_20" data-name="Path 20" d="M775.83,713.794V702.33H793.6v9.833Z" transform="translate(-290.675 -263.303)" fill="#6c63ff" opacity="0.1"/>
    <path id="Path_21" data-name="Path 21" d="M65.24,357v10.17h60.841V357Zm6.064,9.533H66.34v-8.908h5Zm6.057,0h-5v-8.908h5Zm6.045,0h-5v-8.908h5Zm6.057,0H84.468v-8.908h5Zm6.051,0h-5v-8.908h5Zm6.057,0h-5v-8.908h5Zm6.057,0h-5v-8.908h5Zm6.051,0h-5v-8.908h5Zm6.051,0h-5v-8.908h5Zm6.051,0h-5v-8.908h5Z" transform="translate(-53.808 -170.49)" fill="#6c63ff" opacity="0.1"/>
    <path id="Path_22" data-name="Path 22" d="M65.24,404.34v10.17h60.841V404.34Zm6.064,9.527H66.34v-8.883h5Zm6.057,0h-5v-8.883h5Zm6.045,0h-5v-8.883h5Zm6.057,0H84.468v-8.883h5Zm6.051,0h-5v-8.883h5Zm6.057,0h-5v-8.883h5Zm6.057,0h-5v-8.883h5Zm6.051,0h-5v-8.883h5Zm6.051,0h-5v-8.883h5Zm6.051,0h-5v-8.883h5Z" transform="translate(-53.808 -188.238)" fill="#6c63ff" opacity="0.1"/>
    <path id="Path_23" data-name="Path 23" d="M65.24,451.7v10.189h60.841V451.7Zm6.064,9.527H66.34v-8.889h5Zm6.057,0h-5v-8.889h5Zm6.045,0h-5v-8.889h5Zm6.057,0H84.468v-8.889h5Zm6.051,0h-5v-8.889h5Zm6.057,0h-5v-8.889h5Zm6.057,0h-5v-8.889h5Zm6.051,0h-5v-8.889h5Zm6.051,0h-5v-8.889h5Zm6.051,0h-5v-8.889h5Z" transform="translate(-53.808 -205.993)" fill="#6c63ff" opacity="0.1"/>
    <path id="Path_24" data-name="Path 24" d="M65.24,499.06v10.158h60.841V499.06Zm6.064,9.527H66.34v-8.9h5Zm6.057,0h-5v-8.9h5Zm6.045,0h-5v-8.9h5Zm6.057,0H84.468v-8.9h5Zm6.051,0h-5v-8.9h5Zm6.057,0h-5v-8.9h5Zm6.057,0h-5v-8.9h5Zm6.051,0h-5v-8.9h5Zm6.051,0h-5v-8.9h5Zm6.051,0h-5v-8.9h5Z" transform="translate(-53.808 -223.748)" fill="#6c63ff" opacity="0.1"/>
    <path id="Path_25" data-name="Path 25" d="M65.66,546.41c.244.956.519,1.913.806,2.857v-2.219h5v8.889H68.792c.081.206.163.431.244.625h57.2V546.41Zm11.877,9.527h-5v-8.889h5Zm6.045,0h-5v-8.889h5Zm6.057,0H84.626v-8.889h5Zm6.051,0h-5v-8.889h5Zm6.057,0h-5v-8.889h5Zm6.057,0h-5v-8.889h5Zm6.051,0h-5v-8.889h5Zm6.051,0h-5v-8.889h5Zm6.051,0h-5v-8.889h5Z" transform="translate(-53.966 -241.499)" fill="#6c63ff" opacity="0.1"/>
    <path id="Path_26" data-name="Path 26" d="M88.26,593.77c.156.2.306.425.469.625h3.307v4.269c.356.425.706.85,1.069,1.25V594.37h5v8.92H96.08c.2.206.394.425.625.625H134.73V593.77Zm15.884,9.52h-5v-8.883h5Zm6.057,0h-5v-8.883h5Zm6.057,0h-5v-8.883h5Zm6.051,0h-5v-8.883h5Zm6.051,0h-5v-8.883h5Zm6.051,0h-5v-8.883h5Z" transform="translate(-62.438 -259.254)" fill="#6c63ff" opacity="0.1"/>
    <path id="Path_27" data-name="Path 27" d="M141.65,641.12c.569.325,1.15.625,1.738.95v-.313h5v2.813l1.063.494v-3.307h5v5.407a1.571,1.571,0,0,0,.3.113V641.12Z" transform="translate(-82.454 -277.005)" fill="#6c63ff" opacity="0.1"/>
    <path id="Path_28" data-name="Path 28" d="M575.283,336.4ZM536.777,520.9ZM496.6,427.023c.119.4.219.8.331,1.194h0C496.832,427.823,496.726,427.423,496.6,427.023Zm78.682-90.64ZM197.72,242.78v2.669h27.923V242.78ZM536.777,520.9ZM496.6,427.023c.119.4.219.8.331,1.194h0C496.832,427.823,496.726,427.423,496.6,427.023Zm78.682-90.64ZM536.777,520.876ZM496.6,427.023c.119.4.219.8.331,1.194h0C496.832,427.823,496.726,427.423,496.6,427.023Z" transform="translate(-103.474 -127.669)" fill="#6c63ff" opacity="0.1"/>
    <path id="Path_29" data-name="Path 29" d="M428.9,355.77s-2.463-.344-2.463-3.932-1.763-10.289-1.763-10.289h0c0-.031-1.525-11.671-3.632-13.521s-4.813-12.715-4.813-12.715-.463-5.895-1.406-7.164-2.219-4.376-4.1-8.808-9.727-7.5-9.727-7.5-14.184-8.226-18.2-10.908h0a6.166,6.166,0,0,1-1.019-.769c-.7-.919-3.751-.938-3.751-.938a61.454,61.454,0,0,1-.725-6.42,4.887,4.887,0,0,0-.031-.675,21.629,21.629,0,0,0,9.508-11.764c.075-.238.138-.488.206-.725a2.031,2.031,0,0,0,1.219-1.1,22.935,22.935,0,0,1,.819-2.5,9.418,9.418,0,0,1,2.313-2.032c1.988-1.688,2.5-4.532,2.407-7.12-.063-2.094-.4-4.207-.269-6.289l.038-.525c.038-.313.081-.625.138-.925.306-1.55.975-3.013,1.35-4.551a5.854,5.854,0,0,0-.463-4.595c-1.281-1.944-3.951-2.332-6.295-2.532-2.657-.225-5.032.069-6.732-2.138a24,24,0,0,0-2.675-3.232c-.35-.325-3.751-2.4-3.751-2.538a15.2,15.2,0,0,0-10.6-.813c-1.763.513-3.426,1.35-5.213,1.769-3.857.913-8.3-.075-11.571,2.132-1.825,1.25-2.919,3.238-3.944,5.176q-1.25,2.394-2.538,4.782a30.977,30.977,0,0,0-3.369,8.183,12.986,12.986,0,0,0-.225,1.913h0v1.019a3.362,3.362,0,0,0,.038.625c.038.194.031.256.05.388s.05.425.088.625.112.55.188.825c.031.119.075.231.113.344.063.213.138.419.219.625.044.106.088.219.138.325a5.847,5.847,0,0,0,.319.625c.05.088.088.169.138.25a8.293,8.293,0,0,0,.575.838c1.338,1.669,3.307,2.732,4.763,4.294v.7a21.4,21.4,0,0,0,9.739,17.472c0,.237.031.481.044.719a35.769,35.769,0,0,1-.069,5.57,2.625,2.625,0,0,0-2.075-.925,2.993,2.993,0,0,0-.8.069l-.056-.044h0v.056c-1.375.338-3.069,1.769-4.688,5.839,0,0-4.926,5.551-8.676,5.32s-13.246,5.776-13.246,5.776-9.264,6.013-11.252,12.139a85.547,85.547,0,0,1-3.988,10.177l-11.452,23.6h0l-2.113,18.722s1.169,8.326.938,9.6,4.807,12.715,4.807,12.715,16.647,29.249,23.448,30.749l.488-.344a3.99,3.99,0,0,0,.919.344l1.4-.988a15.257,15.257,0,0,1-.106,3.3c-.938,2.888.35,21.735,1.988,25.429s1.056,52.134,1.056,52.134l-.231,4.276a1.813,1.813,0,0,0,.056.375l-.056,1.013.169.088a12.039,12.039,0,0,1-.169,4.069,45.249,45.249,0,0,0-.825,7.176s-4.682,29.93-2.463,35.944,4.107,12.6,4.107,12.6,2.344,7.5.113,8.783-8.576,3.432-7.27,6.557c1.188,2.888,5.695,10.627,6.364,11.758l-.056.594-.919,9.958a12.5,12.5,0,0,0,1.056,3.8,6.549,6.549,0,0,0,6.682,4.176c.625-.044,1.35-.119,2.05-.213a88.608,88.608,0,0,0,15.19-3.951,6.193,6.193,0,0,1-1.188-.981h0a3.432,3.432,0,0,1-1.044-2.5c.1-1.813-3.294-10.452-4.138-12.577-.131-.306-.2-.481-.2-.481s7.739-8.089,6.451-15.259c0,0-8.564-5-5.745-7.745s7.858-10.627,7.858-10.627.231-29.474,0-33.874a36.444,36.444,0,0,1,.431-9.145c.094-.456.206-.9.325-1.338a81.6,81.6,0,0,0,11.777.894c1.438,0,2.9,0,4.376-.088q0,.625.056,1.35c.325,7.3.931,20.1,1.425,24.86.7,6.82,4.569,25.2,4.569,25.2s-7.382,4.738,1.288,16.415c0,0,0,4.232-.575,4.845h0a53,53,0,0,0-1.481,6.1c-.363,2.2-.513,4.426.075,5.582,1.406,2.763,9.845,2.538,9.845,2.538h0l.206-.037a12.1,12.1,0,0,1,8.933,2.694c3.207,2.575,15.378,1.444,21.966.625,2.582-.325,4.307-.625,4.307-.625a2.5,2.5,0,0,0,.088-.9h0c-.069-1.619-1.338-5.17-9.939-8.339,0,0-8.089-5.438-7.976-10.177h-1.106a8.81,8.81,0,0,1,1.119,0s-3.169-11.564-1.875-12.5-2.582-13.752-2.582-13.752-2.219-21.5-2.338-23.01a13.128,13.128,0,0,1,.581-3.813l-.581-11.79s-.113-3.919,0-5.195a25.948,25.948,0,0,0-.269-3.307c-.056-.437-.112-.894-.175-1.344,3.032-.769,5-1.482,5-1.482l-.35-41.038c2.575-5,3.051-15.971,3.038-23.754,0-5-.225-8.7-.225-8.7l3.519-5.745s.813-6.876-.475-8.383a1.443,1.443,0,0,1,.156-1.969,6.542,6.542,0,0,1,.769-.525s-.037-.056-.081-.137a6.209,6.209,0,0,1,.781-.556s-1.25-1.938-.131-2.757c1.05.713,1.988,1.25,2.7,1.688-.05.456-.1.719-.1.719l.3-.625,1.106.625s5.513-10.983,5.395-12.6,3.751-8.439,3.751-8.439.469-3.582,2.582-5.082,1.638-12.371,1.638-12.371.588-5.663,1.994-7.976S428.9,355.77,428.9,355.77Zm-105.493-4.82.106,2.619-1.075-1.732Z" transform="translate(-140.177 -118.439)" fill="url(#linear-gradient)"/>
    <path id="Path_30" data-name="Path 30" d="M478.073,503.869l-1.35,5.751s-10.814-5.52-12.765-12.533,3.263-9.677,3.263-9.677l10.077,4.269Z" transform="translate(-203.122 -219.38)" fill="#fff"/>
    <path id="Path_31" data-name="Path 31" d="M478.073,503.869l-1.35,5.751s-10.814-5.52-12.765-12.533,3.263-9.677,3.263-9.677l10.077,4.269Z" transform="translate(-203.122 -219.38)" opacity="0.1"/>
    <path id="Path_32" data-name="Path 32" d="M375.037,813.193s-10,3.676-16.878,4.138a6.422,6.422,0,0,1-6.557-4.151,12.564,12.564,0,0,1-1.031-3.782l.894-9.908.475-5.276,14.609-3.794,2.069,6.326.194.481c.831,2.113,4.163,10.708,4.063,12.5A3.413,3.413,0,0,0,373.9,812.2a5.947,5.947,0,0,0,1.138.994Z" transform="translate(-160.777 -332.977)" fill="#fff"/>
    <path id="Path_33" data-name="Path 33" d="M472.073,807.761a2.5,2.5,0,0,1-.088.894s-21.391,3.569-25.767,0a11.589,11.589,0,0,0-9-2.638s-8.276.225-9.658-2.5c-.575-1.144-.425-3.363-.069-5.551a52.885,52.885,0,0,1,1.45-6.07l.331-.263,1.969-1.581,23.054-.681h.175c-.113,4.713,7.826,10.12,7.826,10.12C470.729,802.616,471.973,806.148,472.073,807.761Z" transform="translate(-189.496 -332.584)" fill="#fff"/>
    <path id="Path_34" data-name="Path 34" d="M472.075,812.915a2.549,2.549,0,0,1-.094.894s-21.385,3.569-25.76,0a11.589,11.589,0,0,0-9-2.638s-8.283.225-9.658-2.5c-.575-1.15-.431-3.363-.075-5.551,3.188.319,8.22,1.113,10.2,3.007,2.988,2.882,8.051,5.757,11.158,5.982C451.278,812.265,465.824,812.728,472.075,812.915Z" transform="translate(-189.498 -337.738)" opacity="0.1"/>
    <path id="Path_35" data-name="Path 35" d="M375.659,826.273s-10,3.676-16.878,4.138a6.4,6.4,0,0,1-6.551-4.157c2.544.856,6.076,1.757,7.933.932,2.2-.975,10-1.607,14.377-1.875a6.161,6.161,0,0,0,1.119.963Z" transform="translate(-161.399 -346.057)" opacity="0.1"/>
    <path id="Path_36" data-name="Path 36" d="M403.477,330.506c-8.251-3.207-18.866-13.8-16.215-18.753a11.077,11.077,0,0,0,1.031-3.976,36.3,36.3,0,0,0,.075-5.626A77.047,77.047,0,0,0,387.262,293s25.761.581,24.26,4.376a14.186,14.186,0,0,0-.388,5.207c.119,2.163.431,4.607.756,6.676.45,2.838.9,5,.9,5s-1.575,2.207-2.5,2.325S415.316,335.076,403.477,330.506Z" transform="translate(-174.377 -146.497)" fill="#cf6f80"/>
    <path id="Path_37" data-name="Path 37" d="M369.317,797.227l-.194.213c-7.7-9.314-17.015,2.294-17.015,2.294l-.138-.244.475-5.276,14.609-3.794,2.069,6.326Z" transform="translate(-161.302 -332.977)" opacity="0.1"/>
    <path id="Path_38" data-name="Path 38" d="M455.542,790.011s-5.626-.119-8.626,2.532-17.5.575-16.878,0a2.058,2.058,0,0,0,.325-.95l1.969-1.582,23.054-.681C455.474,789.749,455.542,790.011,455.542,790.011Z" transform="translate(-190.562 -332.569)" opacity="0.1"/>
    <path id="Path_39" data-name="Path 39" d="M375.084,666.006a17.39,17.39,0,0,0-.95,3.207,36.7,36.7,0,0,0-.431,9.1c.231,4.376,0,33.7,0,33.7s-4.945,7.82-7.7,10.577,5.626,7.708,5.626,7.708c1.25,7.126-6.326,15.178-6.326,15.178-7.7-9.314-17.015,2.3-17.015,2.3s-5.063-8.751-6.326-11.877,4.945-5.288,7.126-6.557-.106-8.751-.106-8.751-1.844-6.557-4.032-12.54,2.413-35.762,2.413-35.762a46.15,46.15,0,0,1,.806-7.132,11.928,11.928,0,0,0,.169-4.051c-.037-.456-.081-.838-.113-1.094s-.056-.375-.056-.375l.088-.15,3.126-5.826S376.584,662.336,375.084,666.006Z" transform="translate(-157.486 -281.707)" fill="#262626"/>
    <path id="Path_40" data-name="Path 40" d="M451.49,742.128s-5.626-.119-8.626,2.5-17.5.575-16.878,0,.575-4.832.575-4.832c-8.508-11.614-1.25-16.328-1.25-16.328s-3.8-18.284-4.488-25.067c-.481-4.738-1.075-17.472-1.394-24.742-.138-3.125-.219-5.276-.219-5.276l6.951-1.4.894-.181,16.765-3.363s.463,3.125.775,5.682a26.558,26.558,0,0,1,.263,3.294c-.112,1.25,0,5.163,0,5.163l.569,11.733a13.326,13.326,0,0,0-.569,3.794c.113,1.494,2.294,22.885,2.294,22.885s3.794,12.765,2.5,13.684S451.49,742.128,451.49,742.128Z" transform="translate(-186.51 -285.373)" fill="#262626"/>
    <path id="Path_41" data-name="Path 41" d="M411.77,297.376a14.186,14.186,0,0,0-.388,5.207,21.41,21.41,0,0,1-22.766-.425A77.044,77.044,0,0,0,387.51,293S413.271,293.569,411.77,297.376Z" transform="translate(-174.626 -146.497)" opacity="0.1"/>
    <path id="Path_42" data-name="Path 42" d="M416.6,265.071a21.172,21.172,0,0,1-1.05,6.632,21.391,21.391,0,0,1-41.719-6.12v-.513a21.39,21.39,0,1,1,42.779,0Z" transform="translate(-169.497 -128.007)" fill="#cf6f80"/>
    <path id="Path_43" data-name="Path 43" d="M403.477,339.369c-8.251-3.207-18.866-13.8-16.215-18.753a11.077,11.077,0,0,0,1.031-3.976l11.3,9.283,6.989,5.732,5.313-13.527c.45,2.838.9,5,.9,5s-1.575,2.207-2.5,2.325S415.316,343.938,403.477,339.369Z" transform="translate(-174.377 -155.359)" opacity="0.1"/>
    <path id="Path_44" data-name="Path 44" d="M380.8,321.168l-9.433,158.464-12.3.806L327.21,388.555l5.226-109.087,1.1-23.048L347.7,268.053l6.995,5.732,5.47-13.921,10.17,8.864Z" transform="translate(-122.49 -96.133)" fill="#63cfff"/>
    <path id="Path_45" data-name="Path 45" d="M378.911,666.036a17.391,17.391,0,0,0-.95,3.207,90.64,90.64,0,0,1-25.792-8.058L352,661.1l.056-1.006.031-.525,3.126-5.826S380.411,662.366,378.911,666.036Z" transform="translate(-161.313 -281.736)" opacity="0.1"/>
    <path id="Path_46" data-name="Path 46" d="M426.282,675.049a63.281,63.281,0,0,1-6.914.788c-.138-3.125-.219-5.276-.219-5.276l6.951-1.4Z" transform="translate(-186.487 -287.517)" opacity="0.1"/>
    <path id="Path_47" data-name="Path 47" d="M449.24,669.172c-4.444,1.156-11.308,2.457-17.453,1.644l-.088-3.963,16.765-3.363S448.928,666.584,449.24,669.172Z" transform="translate(-191.192 -285.392)" opacity="0.1"/>
    <path id="Path_48" data-name="Path 48" d="M383.051,540.9c-25.629,4.376-49.1-8.17-49.1-8.17l.225-4.251s.581-48.189-1.031-51.884-2.869-22.429-1.957-25.3-3.332-46-3.332-46l-.688-17.5L302,377.593l11.252-23.454a84.634,84.634,0,0,0,3.913-10.127c1.957-6.088,11.039-12.071,11.039-12.071s9.314-5.976,13-5.751,8.508-5.288,8.508-5.288c3.563-9.083,6.789-4.97,6.789-4.97a8.114,8.114,0,0,1-.175,1.344c-1.25,9.97,20.216,41.476,20.522,42.032h0l2.044,49.8,2.069,63.017Z" transform="translate(-142.568 -154.746)" opacity="0.1"/>
    <path id="Path_49" data-name="Path 49" d="M381.94,540.873c-25.629,4.376-49.108-8.17-49.108-8.17l.231-4.251s.581-48.189-1.038-51.884-2.869-22.429-1.95-25.3-3.332-46-3.332-46l-.694-17.5L300.87,377.533l11.252-23.454a85.952,85.952,0,0,0,3.913-10.127c1.95-6.089,11.039-12.071,11.039-12.071s9.314-5.976,12.99-5.751,8.508-5.288,8.508-5.288c3.569-9.083,7.5-4.97,7.5-4.97,0,.431-.375.625-.175,1.344,2.75,9.67,19.528,41.476,19.835,42.032h0l2.069,49.8,2.069,63.017Z" transform="translate(-142.145 -154.723)" fill="#fff"/>
    <path id="Path_50" data-name="Path 50" d="M405.35,361.536c-2.757-1.15-17.359-17.822-17.359-17.822V339.92c-.531-1.25-3.688-.488-6.251.388l1.1-23.048,1.25,1.038C386.828,327.962,405.031,360.98,405.35,361.536Z" transform="translate(-172.463 -155.592)" opacity="0.1"/>
    <path id="Path_51" data-name="Path 51" d="M406.456,359.326c-2.763-1.15-17.365-17.822-17.365-17.822V337.71c-.531-1.25-3.688-.488-6.251.388l1.106-23.048,1.25,1.038C387.941,325.752,406.15,358.776,406.456,359.326Z" transform="translate(-172.875 -154.763)" fill="#fff"/>
    <path id="Path_52" data-name="Path 52" d="M352.266,517.788c.344,0,17.822-1.838,17.822-1.838s10.583,20.81,9.889,25.873-1.95,9.545-6.207,8.751-22.91.625-22.91.625Z" transform="translate(-160.886 -230.08)" opacity="0.1"/>
    <path id="Path_53" data-name="Path 53" d="M351.156,515.578c.344,0,17.822-1.838,17.822-1.838s10.577,20.816,9.889,25.873-1.957,9.545-6.207,8.751-22.91.625-22.91.625Z" transform="translate(-160.47 -229.251)" fill="#fff"/>
    <path id="Path_54" data-name="Path 54" d="M367.338,501.05s16.04,8.62,16.384,11.252-8.164-1.15-10-1.607a22.891,22.891,0,0,0-3.682-.575l-12.258.331Z" transform="translate(-163.48 -224.494)" fill="#cf6f80"/>
    <circle id="Ellipse_3" data-name="Ellipse 3" cx="1.688" cy="1.688" r="1.688" transform="translate(226.724 203.644)" opacity="0.1"/>
    <circle id="Ellipse_4" data-name="Ellipse 4" cx="1.688" cy="1.688" r="1.688" transform="translate(226.724 202.956)" fill="#3f3d56"/>
    <circle id="Ellipse_5" data-name="Ellipse 5" cx="1.688" cy="1.688" r="1.688" transform="translate(229.831 276.706)" opacity="0.1"/>
    <circle id="Ellipse_6" data-name="Ellipse 6" cx="1.688" cy="1.688" r="1.688" transform="translate(229.831 276.012)" fill="#3f3d56"/>
    <circle id="Ellipse_7" data-name="Ellipse 7" cx="1.688" cy="1.688" r="1.688" transform="translate(228.406 240.175)" opacity="0.1"/>
    <circle id="Ellipse_8" data-name="Ellipse 8" cx="1.688" cy="1.688" r="1.688" transform="translate(228.406 239.488)" fill="#3f3d56"/>
    <path id="Path_55" data-name="Path 55" d="M458.393,441.467s1.15,1.725,0,2.532.113,2.757.113,2.757-2.869,1.682-1.606,3.194.463,8.345.463,8.345l-3.451,5.713s.206,3.682.219,8.658c0,7.764-.456,18.678-2.982,23.654l.35,40.826s-12.083,4.413-22.2,3.069L427.8,474.7s2.188-37.15,2.994-44.276a74.184,74.184,0,0,0,.575-11.158s-.344-11.152-1.5-16.328c0,0-1.25-22.422-1.375-28.63-.056-2.969.1-11.633.275-19.872.194-9.008.413-17.5.413-17.5L426.9,318.884s2.282-.231,2.969.688a6.581,6.581,0,0,0,1,.769h0c3.938,2.663,17.853,10.852,17.853,10.852s7.7,3.063,9.545,7.451,3.126,7.5,4.019,8.751,1.382,7.126,1.382,7.126,2.65,10.814,4.72,12.646,3.582,13.484,3.582,13.484l-18.284,14.377s-1.607,23.917-1.95,24.842S458.393,441.467,458.393,441.467Z" transform="translate(-189.393 -156.191)" fill="#fff"/>
    <path id="Path_56" data-name="Path 56" d="M459.06,441.348s1.144,1.725,0,2.532.106,2.757.106,2.757-2.85,1.7-1.6,3.213.463,8.345.463,8.345l-3.451,5.713s.206,3.682.225,8.658c0,7.764-.456,18.678-2.982,23.654l.344,40.826s-12.1,4.413-22.2,3.069L428.468,474.6s2.188-37.15,2.994-44.276a73.492,73.492,0,0,0,.569-11.158s-.344-11.152-1.494-16.328c0,0-1.25-22.422-1.381-28.63-.056-2.969.106-11.633.275-19.872.194-9.008.413-17.5.413-17.5l-3.013-18.3s3.013,0,3.707.931a5.931,5.931,0,0,0,1,.769h0c3.938,2.663,17.859,10.852,17.859,10.852s7.7,3.063,9.539,7.451,3.126,7.5,4.026,8.751,1.375,7.126,1.375,7.126,2.65,10.814,4.72,12.646,3.563,13.459,3.563,13.459L454.335,394.9s-1.606,23.917-1.957,24.842S459.06,441.348,459.06,441.348Z" transform="translate(-189.367 -156.072)" fill="#fff"/>
    <path id="Path_57" data-name="Path 57" d="M437.579,342.965l1.65,4.813-8.689,8.751c.194-9,.413-17.5.413-17.5l-3.013-18.3s3.013,0,3.707.931a5.7,5.7,0,0,0,1,.763h0l7.389,21.316Z" transform="translate(-189.783 -156.893)" opacity="0.1"/>
    <path id="Path_58" data-name="Path 58" d="M436.469,340.755l1.657,4.813-8.689,8.751c.194-9.008.413-17.5.413-17.5l-3.019-18.3s3.019,0,3.707.931a6.255,6.255,0,0,0,1,.769h0l7.395,21.31Z" transform="translate(-189.367 -156.064)" fill="#fff"/>
    <path id="Path_59" data-name="Path 59" d="M416.6,265.071a21.171,21.171,0,0,1-1.05,6.632.894.894,0,0,1-.675-.169c-.163-5.626-2.932-10.908-6.339-15.4a16.184,16.184,0,0,0-3.438-3.563,6.726,6.726,0,0,0-4.663-1.319c-1.875.256-3.532,1.532-5.426,1.694-2.5.206-4.738-1.525-7.22-1.613a7.1,7.1,0,0,0-5.307,2.463,14.559,14.559,0,0,0-2.844,5.276,30.867,30.867,0,0,0-1.588,9.1c-.031,1.75-.2,3.944-1.825,4.582a9.339,9.339,0,0,0-2.357-7.132l-.038-.038v-.513a21.39,21.39,0,1,1,42.779,0Z" transform="translate(-169.497 -128.007)" opacity="0.1"/>
    <path id="Path_60" data-name="Path 60" d="M400.154,222.73a14.727,14.727,0,0,0-10.389-.813c-1.732.513-3.363,1.344-5.12,1.763-3.751.906-8.126-.075-11.346,2.119a13.57,13.57,0,0,0-3.863,5.145l-2.5,4.763a30.911,30.911,0,0,0-3.307,8.126,10.375,10.375,0,0,0,1.594,8.389c1.325,1.682,3.282,2.738,4.72,4.319a9.377,9.377,0,0,1,2.35,7.126c1.631-.625,1.788-2.825,1.825-4.576a30.868,30.868,0,0,1,1.588-9.1,14.509,14.509,0,0,1,2.844-5.276,7.108,7.108,0,0,1,5.307-2.463c2.5.088,4.745,1.813,7.22,1.607,1.875-.156,3.538-1.438,5.426-1.688a6.7,6.7,0,0,1,4.663,1.319,16.015,16.015,0,0,1,3.432,3.563c3.413,4.495,6.182,9.764,6.345,15.4.706.519,1.725-.156,2.075-.956a22.845,22.845,0,0,1,.806-2.5,9.22,9.22,0,0,1,2.263-2.013c1.95-1.682,2.438-4.513,2.363-7.082s-.575-5.176-.088-7.7c.294-1.55.956-3,1.319-4.532a5.926,5.926,0,0,0-.45-4.57c-1.25-1.938-3.882-2.319-6.176-2.5-2.607-.225-4.938.063-6.6-2.132a23.941,23.941,0,0,0-2.625-3.213C403.5,224.93,400.154,222.867,400.154,222.73Z" transform="translate(-165.579 -119.628)" fill="#512e4e"/>
    <path id="Path_61" data-name="Path 61" d="M308.361,427.207l-6.532-12.077-2.069,18.634s1.15,8.276.919,9.545,4.713,12.646,4.713,12.646,16.334,29.092,23,30.593l22.535-16.1-5.976-7.589s-2.069-.806-2.588,0c0,0-11.1-19.091-12.246-20.472s-.925-4.138-.925-4.138-1.725-1.838-1.15-3.563-3.332-7.708-3.332-7.708l3.563-3.332Z" transform="translate(-141.729 -192.283)" opacity="0.1"/>
    <path id="Path_62" data-name="Path 62" d="M301.344,412.93l-1.725,1.375L297.55,432.94s1.15,8.276.919,9.545,4.72,12.646,4.72,12.646,16.328,29.092,23,30.593l22.541-16.1-5.982-7.589s-2.069-.806-2.588,0c0,0-11.1-19.091-12.246-20.472s-.919-4.138-.919-4.138-1.725-1.838-1.15-3.563-3.338-7.708-3.338-7.708l3.563-3.332Z" transform="translate(-140.9 -191.458)" fill="#fff"/>
    <path id="Path_63" data-name="Path 63" d="M467.069,523.033c1.25,1.519.463,8.339.463,8.339l-3.451,5.713s.206,3.688.219,8.658l-5.8,1.813a3.444,3.444,0,0,1-4.469-3.394l1-32.262,13.534,5.176c-1.15.8.112,2.763.112,2.763S465.806,521.514,467.069,523.033Z" transform="translate(-199.563 -228.561)" opacity="0.1"/>
    <path id="Path_64" data-name="Path 64" d="M468.175,521.927c1.25,1.519.463,8.345.463,8.345l-3.451,5.713s.206,3.682.225,8.658l-5.907,1.844a3.376,3.376,0,0,1-4.376-3.326l1.006-32.362,13.54,5.176c-1.156.8.106,2.757.106,2.757S466.925,520.414,468.175,521.927Z" transform="translate(-199.975 -228.149)" fill="#fff"/>
    <path id="Path_65" data-name="Path 65" d="M476.677,500.981s-.919,5.87-3.219,6.214-3.332,9.5-5.626,9.17-.775-8.508-.694-10.1-2.5-8.164-.569-9.658,8.045,0,8.045,0Z" transform="translate(-203.995 -222.581)" fill="#cf6f80"/>
    <path id="Path_66" data-name="Path 66" d="M480.156,426.441l4.338-8.751s1.725,6.67,1.725,10.233,2.413,3.913,2.413,3.913,2.644,3.126,1.25,5.4-1.957,7.939-1.957,7.939.456,10.808-1.613,12.3-2.5,5.063-2.5,5.063-3.8,6.782-3.682,8.4-5.288,12.533-5.288,12.533,2.644-13.571-12.765-19.435c0,0-.119-4.607,1.031-5.87s2.944-1.838,1.819-8.22-.325-14.009-.325-15.54,3.451-11.083,3.451-11.083Z" transform="translate(-202.58 -193.242)" opacity="0.1"/>
    <path id="Path_67" data-name="Path 67" d="M482.815,415.69l3.788,1.25s1.732,6.67,1.732,10.233,2.413,3.913,2.413,3.913,2.644,3.126,1.25,5.4-1.95,7.939-1.95,7.939.456,10.808-1.613,12.3-2.532,5.063-2.532,5.063-3.794,6.782-3.676,8.4-5.295,12.533-5.295,12.533,2.65-13.571-12.765-19.435c0,0-.113-4.607,1.038-5.87s2.944-1.838,1.819-8.22-.325-14.009-.325-15.54,3.451-11.083,3.451-11.083Z" transform="translate(-203.363 -192.493)" fill="#fff"/>
    <path id="Path_68" data-name="Path 68" d="M360.15,777.336s6.039-3.794,10-1.038S360.15,777.336,360.15,777.336Z" transform="translate(-164.369 -327.307)" opacity="0.1"/>
    <path id="Path_69" data-name="Path 69" d="M435.21,759.77a12.224,12.224,0,0,1,9.833,4.144C449.531,768.746,435.21,759.77,435.21,759.77Z" transform="translate(-192.508 -321.474)" opacity="0.1"/>
    <g id="Group_1" data-name="Group 1" transform="translate(197.803 115.436)" opacity="0.1">
      <path id="Path_70" data-name="Path 70" d="M421.462,267.281a9.272,9.272,0,0,0-2.269,2.019,22.866,22.866,0,0,0-.8,2.5c-.35.813-1.369,1.475-2.075.963-.163-5.626-2.938-10.908-6.345-15.409a16.014,16.014,0,0,0-3.432-3.563,6.72,6.72,0,0,0-4.67-1.319c-1.875.256-3.526,1.531-5.42,1.688-2.5.213-4.745-1.519-7.226-1.607a7.076,7.076,0,0,0-5.3,2.469,14.477,14.477,0,0,0-2.844,5.27,30.905,30.905,0,0,0-1.588,9.1c-.038,1.744-.2,3.919-1.813,4.57a8.565,8.565,0,0,1,0,1.388c1.625-.625,1.788-2.826,1.825-4.576a30.868,30.868,0,0,1,1.588-9.1,14.508,14.508,0,0,1,2.844-5.276,7.1,7.1,0,0,1,5.3-2.463c2.5.088,4.751,1.813,7.226,1.607,1.875-.156,3.538-1.438,5.42-1.688a6.72,6.72,0,0,1,4.67,1.319,16.016,16.016,0,0,1,3.432,3.563c3.407,4.494,6.182,9.764,6.345,15.4.706.519,1.725-.156,2.075-.956a24.255,24.255,0,0,1,.8-2.5,9.251,9.251,0,0,1,2.269-2.013c1.95-1.682,2.438-4.513,2.363-7.082v-.238C423.719,263.574,423.125,265.843,421.462,267.281Z" transform="translate(-368.744 -246.727)"/>
      <path id="Path_71" data-name="Path 71" d="M369.958,269.813c-1.438-1.582-3.4-2.638-4.72-4.313a9.151,9.151,0,0,1-1.819-5.12,9.627,9.627,0,0,0,1.819,6.495c1.319,1.681,3.282,2.738,4.72,4.319a9.377,9.377,0,0,1,2.357,5.576A9.377,9.377,0,0,0,369.958,269.813Z" transform="translate(-363.385 -249.703)"/>
      <path id="Path_72" data-name="Path 72" d="M452.55,244.538c-.369,1.532-1.025,2.988-1.325,4.532a14.437,14.437,0,0,0-.194,3.126,12.137,12.137,0,0,1,.194-1.775c.3-1.55.956-3,1.325-4.532a7.69,7.69,0,0,0,.206-2.588A8.692,8.692,0,0,1,452.55,244.538Z" transform="translate(-396.237 -243.3)"/>
    </g>
    <ellipse id="Ellipse_9" data-name="Ellipse 9" cx="60.91" cy="9.783" rx="60.91" ry="9.783" transform="translate(22.24 455.88)" fill="#6c63ff" opacity="0.1"/>
    <rect id="Rectangle_27" data-name="Rectangle 27" width="3.919" height="88.246" transform="translate(81.193 278.257)" fill="#535461"/>
    <path id="Path_73" data-name="Path 73" d="M190.62,640.919l-.244,3.976-.35,5.626-.144,2.338-.344,5.626-.15,2.338-.35,5.626-3.951,63.8A10.814,10.814,0,0,1,174.3,740.391H153.757a10.808,10.808,0,0,1-10.783-10.139L139.042,666.4l-.35-5.626-.144-2.338-.35-5.626-.144-2.338-.35-5.626-.25-3.976a5.626,5.626,0,0,1,5.626-5.945h42.013a5.589,5.589,0,0,1,5.526,5.989Z" transform="translate(-80.878 -274.685)" fill="#3f3d56"/>
    <path id="Path_74" data-name="Path 74" d="M143.276,592.24l-.35,5.607h-52l-.35-5.607Z" transform="translate(-33.778 -222.031)" fill="#9d9cb5"/>
    <path id="Path_75" data-name="Path 75" d="M143.079,604.95l-.344,5.613H91.72l-.35-5.613Z" transform="translate(-34.074 -226.795)" fill="#9d9cb5"/>
    <path id="Path_76" data-name="Path 76" d="M142.881,617.68l-.344,5.607H92.51l-.35-5.607Z" transform="translate(-34.37 -231.568)" fill="#9d9cb5"/>
    <path id="Path_77" data-name="Path 77" d="M98.071,546.213c22.823,16.515,32.349,42.345,32.349,42.345s-27.5-.944-50.333-17.459S47.75,528.76,47.75,528.76,75.242,529.7,98.071,546.213Z" transform="translate(-47.251 -234.882)" fill="#4ba300"/>
    <path id="Path_78" data-name="Path 78" d="M47.72,528.76s28.555,15.846,37.713,28.967,44.976,30.83,44.976,30.83" transform="translate(-47.24 -234.882)" fill="none" stroke="#535461" stroke-miterlimit="10" stroke-width="2"/>
    <path id="Path_79" data-name="Path 79" d="M135.392,497.762c12.421,8.983,17.615,23.041,17.615,23.041s-14.971-.513-27.4-9.5S108,488.26,108,488.26,122.965,488.773,135.392,497.762Z" transform="translate(-69.839 -219.699)" fill="#4ba300"/>
    <path id="Path_80" data-name="Path 80" d="M108,488.26s15.54,8.626,20.522,15.765S153.008,520.8,153.008,520.8" transform="translate(-69.839 -219.699)" fill="none" stroke="#535461" stroke-miterlimit="10" stroke-width="2"/>
    <path id="Path_81" data-name="Path 81" d="M198.48,526.808c-14.271,15.684-17.29,36.181-17.29,36.181s20.122-4.938,34.381-20.628,17.29-36.181,17.29-36.181S212.752,511.125,198.48,526.808Z" transform="translate(-97.277 -226.417)" fill="#4ba300"/>
    <path id="Path_82" data-name="Path 82" d="M232.874,506.19s-18.591,16.078-23.316,27.155-28.367,29.649-28.367,29.649" transform="translate(-97.277 -226.421)" fill="none" stroke="#535461" stroke-miterlimit="10" stroke-width="2"/>
    <path id="Path_83" data-name="Path 83" d="M962.768,430.381s-10.32-51.346-6.37-57.735c0,0,.144-5.939-.094-13.508v-.869a19.223,19.223,0,0,0,2.169,1.25,17.553,17.553,0,0,0,11.814,1.525l-3.125-3.482a5.77,5.77,0,0,1-1.694-2.832,5.932,5.932,0,0,1,.675-3.063c2.969-7.5,3.125-16.934-2.594-22.66-4.832-4.813-6.007-11.027-11.252-15.421-3.832-3.219-5.938-7.939-7.926-12.5a70.308,70.308,0,0,1-4.338-11.833c-.75-3.194-1.05-6.5-2.082-9.62s-2.963-6.151-5.982-7.545a22.578,22.578,0,0,1-3.251-1.431,14.041,14.041,0,0,1-2.994-3.519c-4.732-6.251-20.578-2.569-28.08-.031a15.8,15.8,0,0,0-5.551,3.076l.069-.113c.056-.094.125-.187.188-.281a9.862,9.862,0,0,0-2.1,2.344c-1.094,1.732-1.55,3.751-2.463,5.626-1.1,2.219-7.22,8.414-4.588,10.908a2.218,2.218,0,0,0,.625.4,5.407,5.407,0,0,0,3.125.313l-.112.269a18.272,18.272,0,0,0-1.357,6.932,18.762,18.762,0,0,0,18.928,18.6,19.108,19.108,0,0,0,5.795-.894c.044.238.081.475.125.713a2.189,2.189,0,0,0,.044.281h0l-.331.463a.634.634,0,0,0-.056-.081l-9.814,13.715c-1.5,1.056-10.139,7.307-10.627,12-.513,5.132-1.025,11.139-1.025,11.139l-.069,1.288a3.863,3.863,0,0,1-3.125.844c-3.063-.5-3.063,11.252-3.063,11.252s-2.038,1.875-3.438.25-5.1,3.882-5.1,3.882l-23.191,1h0l-.531.031-1.25-3.869a1.632,1.632,0,0,0-2.044-1.044,1.871,1.871,0,0,0-.281.119l-.088.05-.162.113-.081.075a1.255,1.255,0,0,0-.125.131l-.075.088-.037.038h0a1.575,1.575,0,0,0-.225,1.4l1.075,3.319c-4.476.9-9.051,3.438-5.32,10.427L822.47,378.4l6.12,5.138,31.593,6.52c-.419.75-.144,1.838,1.163,3.369,5.626,6.607,15.878,8.4,20,8.864a35.509,35.509,0,0,0,4.057,6.876l-.356,6.582s-10.445,50.171-12.358,52.715a29.744,29.744,0,0,0,2.644-3.482c-3.032,10.308-7.27,24.417-8.383,26.529-1.788,3.376-3.444,17.034-1.407,17.909.625.269,2.413.138,4.963-.056V510.5l-.113,42.876s.513,26.3-.894,28.8-1.782,7.764-1.782,7.764-5.626,10.37-10.083,14.54a.672.672,0,0,1-.1.088l-.137-.975s-5.357,6.764-17.209,6.382c0,0-7.132,4.638,3.444,4.888s24.085-.375,24.085-.375,9.433-14.377,17.334-12.5v10.9h2.419V601.816a9.921,9.921,0,0,0,4.307-6.52,7.927,7.927,0,0,0-2.825-7.332,4.688,4.688,0,0,1-1.544-3.426l-.088.075a6.637,6.637,0,0,0-.081-.675c-.694-5.626-1.563-17.234,1.506-25.823,4.207-11.777,5.482-28.18,2.419-37.944a87.246,87.246,0,0,1-2.432-9.508c-.075-.406-.144-.794-.206-1.156a49.291,49.291,0,0,1,6.207,1.25c7.095,1.957,22.616,2.319,35.868,2.213.031.363.069.744.113,1.125a40.947,40.947,0,0,0,1.475,7.826c1.663,5,2.425,27.048,2.425,27.048s2.144,18.128.975,25.5c-.625,4.1-1.25,8.22-1.607,12.358v.081s-3.513,10-6.082,15.434c-.062.137-.131.275-.194.406a8.128,8.128,0,0,0-2.007.444s-3.444,6.876-6.876,8.014-2.294,4.882,5.476,3.507,19.5-2.5,19.5-2.5l.506-7.014,2.388-2.988-.625,6.995,2.544-.5-.338-8.508,3.907-4.888s4.72-4.2-2.294-12.465v.181c-.075-.119-.144-.244-.225-.363v-.037c-1.163-1.8-2.088-5.157-.394-11.114,3.063-10.764,4.845-20.535,4.845-20.535s6.839-26.173-1.381-38.556h.362a20.828,20.828,0,0,1-1.769-5.5q-.062-.337-.112-.694c6.082-.35,12.052-1.45,16.922-3.826C968.126,502.381,965.194,440.27,962.768,430.381Zm-77.219-43.32v.125l-1.25.063Zm-4.288.594a1.382,1.382,0,0,0-.563.269,5.551,5.551,0,0,0-.981,2.569l-1.95-.438s-1.369-.294-3.338-.625l-.931-.938C876.06,388.28,878.723,387.968,881.261,387.655Z" transform="translate(-337.69 -135.509)" fill="url(#linear-gradient-2)"/>
    <path id="Path_84" data-name="Path 84" d="M972.064,742.78l-.744,8.858,2.494-.5-.375-9.608Z" transform="translate(-363.964 -277.999)" fill="#1d2366"/>
    <path id="Path_85" data-name="Path 85" d="M908.323,703.078c-3.007,8.564-2.157,20.122-1.481,25.736.25,2.075.481,3.338.481,3.338s-4.495,10.239-4.87,10.627-13.227,8.233-13.227,8.233l-8.983,5.245s-9.114-3.994-4.745-5.37a6.632,6.632,0,0,0,2.357-1.606c4.376-4.157,9.87-14.49,9.87-14.49s.375-5.245,1.75-7.739.875-28.7.875-28.7l.106-42.726v-5.57l17.1.125a38.674,38.674,0,0,0,.738,5.626,86.016,86.016,0,0,0,2.382,9.477C913.687,675.023,912.436,691.344,908.323,703.078Z" transform="translate(-357.126 -280.353)" fill="#ffb0b1"/>
    <path id="Path_86" data-name="Path 86" d="M907.323,779.4s-4.495,10.239-4.87,10.627-13.227,8.233-13.227,8.233l-8.983,5.245s-9.114-3.994-4.745-5.37a6.633,6.633,0,0,0,2.357-1.607l.388,2.732,2.994-.125,25.629-23.06C907.092,778.133,907.323,779.4,907.323,779.4Z" transform="translate(-357.126 -327.597)" opacity="0.1"/>
    <path id="Path_87" data-name="Path 87" d="M897.488,777l-25.773,23.216-2.994.125-.625-4.376s-5.238,6.739-16.878,6.364c0,0-6.989,4.62,3.369,4.87s23.585-.375,23.585-.375,9.239-14.377,16.972-12.5V805.18h2.375V794.222a9.87,9.87,0,0,0,4.213-6.5,7.964,7.964,0,0,0-2.757-7.3A4.707,4.707,0,0,1,897.487,777Z" transform="translate(-347.603 -327.946)" fill="#1d2366"/>
    <path id="Path_88" data-name="Path 88" d="M1009.628,716.151c-1.663,5.938-.756,9.283.381,11.077v.038A20.472,20.472,0,0,1,1013,734.56l.1.563-11.727,17.1-6.364,2.5s-10.233-3.494-8.364-4.495c.469-.244,1.2-1.544,2.038-3.338,2.5-5.407,5.951-15.384,5.951-15.384v-.081c.363-4.119.938-8.226,1.575-12.315,1.144-7.358-.956-25.417-.956-25.417s-.75-21.96-2.375-26.954a41.215,41.215,0,0,1-1.456-7.776c-.338-3.125-.413-5.7-.413-5.7s6.739-9.377,19.091.75a13.593,13.593,0,0,1,2.582,2.8c8.533,12.14,1.663,38.882,1.663,38.882S1012.623,705.418,1009.628,716.151Z" transform="translate(-399.153 -280.074)" fill="#ffb0b1"/>
    <path id="Path_89" data-name="Path 89" d="M1013.128,781.765l-11.727,17.1-6.364,2.5s-10.233-3.494-8.364-4.494c.469-.244,1.2-1.544,2.038-3.338,4.332-.038,6.576,4.088,6.576,4.088l5.488-.875s7.239-14.227,8.864-15.1.25-6.495.25-6.495V773.72c.044.05.081.106.131.156v.037a20.471,20.471,0,0,1,2.988,7.295Z" transform="translate(-399.164 -326.716)" opacity="0.1"/>
    <path id="Path_90" data-name="Path 90" d="M990.6,798.2s-3.125-5.738-9.114-3.619c0,0-3.369,6.876-6.739,7.989s-2.244,4.863,5.37,3.494,19.091-2.5,19.091-2.5l.5-6.995,7.739-9.858s4.613-4.182-2.25-12.415v1.431s1.375,5.626-.25,6.495-8.839,15.1-8.839,15.1Z" transform="translate(-394.104 -326.934)" fill="#1d2366"/>
    <path id="Path_91" data-name="Path 91" d="M917.255,650.155a38.7,38.7,0,0,0,.738,5.626,78.42,78.42,0,0,0-17.853-.181v-5.57Z" transform="translate(-366.809 -280.346)" opacity="0.1"/>
    <path id="Path_92" data-name="Path 92" d="M1016.141,658.362s-10,.488-21.929.588c-.338-3.125-.413-5.7-.413-5.7s6.739-9.377,19.091.75a13.582,13.582,0,0,1,2.582,2.8A15.314,15.314,0,0,0,1016.141,658.362Z" transform="translate(-401.921 -280.07)" opacity="0.1"/>
    <path id="Path_93" data-name="Path 93" d="M977.568,591.568s-43.807,2.119-57.16-1.625-26.586-.5-28.58-1.369-.375-14.477,1.375-17.847,11.352-37.444,11.352-37.444l9.239-48.171,9.733-2.682.688-.194,16.959-4.676L953.6,474.13s24.71,96.472,22.591,103.586a18.216,18.216,0,0,0-.363,8.37A20.891,20.891,0,0,0,977.568,591.568Z" transform="translate(-363.348 -214.402)" fill="#1d2366"/>
    <path id="Path_94" data-name="Path 94" d="M873.238,439s-8.751,9.377-2.125,14.6,10.983.5,10.983.5Z" transform="translate(-354.997 -201.231)" fill="#c7daf5"/>
    <path id="Path_95" data-name="Path 95" d="M873.238,439s-8.751,9.377-2.125,14.6,10.983.5,10.983.5Z" transform="translate(-354.997 -201.231)" opacity="0.1"/>
    <path id="Path_96" data-name="Path 96" d="M977.882,330.13s-1.025.975-2.569,2.413c-2.2,2.057-5.457,5.063-8.345,7.582-4,3.482-7.3,6.039-6.12,3.857s.956-5.982.369-9.539c-.044-.238-.081-.475-.125-.706a65.518,65.518,0,0,0-1.932-7.726s6.464-8.351,10.039-11.646c1.331-1.25,2.263-1.763,2.319-.894a29.041,29.041,0,0,0,2.025,6.489c.031.088.063.169.1.256.725,1.875,1.544,3.8,2.263,5.463C977.007,328.229,977.882,330.13,977.882,330.13Z" transform="translate(-388.935 -154.009)" fill="#ffb0b1"/>
    <path id="Path_97" data-name="Path 97" d="M973.644,320.22a18.553,18.553,0,0,1-12.427,14.227,65.047,65.047,0,0,0-2.057-8.433s12.171-15.721,12.358-12.54C971.562,314.681,972.512,317.357,973.644,320.22Z" transform="translate(-388.935 -154.013)" opacity="0.1"/>
    <path id="Path_98" data-name="Path 98" d="M946.474,352.669l1.575-2.219s1.044,6.364,4.882,3.557,4.026,21.122,4.026,21.122l-4.119,61.592-29.768-1.782.844-29.761,3.369-15,8.333-21.81,4.957-7.207Z" transform="translate(-375.405 -168.034)" opacity="0.1"/>
    <path id="Path_99" data-name="Path 99" d="M956.968,375.72l-3.751,55.691-.394,5.9-16.6-.994-.625-.037-12.5-.75.844-29.767,3.369-15,8.333-21.81,4.957-7.207,5.9-8.52,1.575-2.213s1.044,6.364,4.882,3.557l.081-.056h0C956.793,352.135,956.968,375.72,956.968,375.72Z" transform="translate(-375.416 -168.244)" fill="#1d2366"/>
    <path id="Path_100" data-name="Path 100" d="M907.375,406.26s-1.494,3.126-4.494,2.619-2.994,11.252-2.994,11.252-1.994,1.875-3.369.25-5,3.869-5,3.869l-22.716,1s10.108,4.62,8.126,18.6c0,0,34.318-2.125,35.443-5.37S907.375,406.26,907.375,406.26Z" transform="translate(-355.059 -188.957)" fill="#fff"/>
    <path id="Path_101" data-name="Path 101" d="M907.375,406.26s-1.494,3.126-4.494,2.619-2.994,11.252-2.994,11.252-1.994,1.875-3.369.25-5,3.869-5,3.869l-22.716,1s10.108,4.62,8.126,18.6c0,0,34.318-2.125,35.443-5.37S907.375,406.26,907.375,406.26Z" transform="translate(-355.059 -188.957)" opacity="0.03"/>
    <path id="Path_102" data-name="Path 102" d="M777.66,389.76l5.988,5.113,49.3,10.358-6.113-6.239Z" transform="translate(-291.361 -146.122)" fill="#fff"/>
    <path id="Path_103" data-name="Path 103" d="M939.257,353.645c-.819,1.25-3.163,7.651-5.12,13.24-1.631,4.657-2.994,8.751-2.994,8.751s-3.182,20.716-4.807,24.46-.744,18.347-.744,18.347l-6.057,36.062s-2.744,18.6-6.982,29.7c-4.182,10.933-8.839,16.059-8.983,16.221,1.875-2.538,12.1-52.509,12.1-52.509l3.376-63.023s.494-5.988.994-11.108,10.627-12.108,10.627-12.108l9.764-13.884C941.408,349.113,940.751,351.4,939.257,353.645Z" transform="translate(-368.094 -167.041)" fill="#fff"/>
    <path id="Path_104" data-name="Path 104" d="M906.345,478.429S891.968,477.8,885,469.44s16.1-3.338,16.1-3.338l5.995,1.375Z" transform="translate(-360.643 -210.831)" fill="#ffb0b1"/>
    <path id="Path_105" data-name="Path 105" d="M995.755,533.6a18.216,18.216,0,0,0-.363,8.37c-15.684,1.113-32.462-3.125-32.462-3.125-3.125,2.875-11.358,7.114-11.358,7.114l-4.488-55.634c-2.869-7.5-3.994-46.8-3.994-46.8s.256-2.057.625-5.138a.59.59,0,0,1,.031-.231c1.119-8.608,3.338-24.767,4.426-26.948,1.5-3-4.613-10.983-4.613-10.983l2.782-23.723.338-2.863c5.864-2.619,10.358-10.983,10.358-10.983l3.451-6.045h0c3.751-2.407,3.944,21.179,3.944,21.179l-3.751,55.691,12.427-3.432S997.874,526.485,995.755,533.6Z" transform="translate(-382.91 -170.278)" opacity="0.1"/>
    <path id="Path_106" data-name="Path 106" d="M1012.3,528.508c-17.1,8.489-48.171.625-48.171.625-3.125,2.875-11.358,7.114-11.358,7.114l-4.494-55.634c-2.863-7.5-3.988-46.8-3.988-46.8s3.613-29.324,5.113-32.318a4.815,4.815,0,0,0-.294-3.576,45.245,45.245,0,0,1-2.738-20.935l1.2-10.2.331-2.857c5.87-2.625,10.364-10.989,10.364-10.989l3.126-5.476,5.751-10.089,2.725-4.776.463.419,3.532,3.2,3.751,3.126c4.895,4.126,13.352,11.389,17.715,15.834,3.838,3.913,5.051,19.134,5.4,30.593.231,7.545.094,13.458.094,13.458-3.869,6.37,6.251,57.51,6.251,57.51C1009.432,466.622,1012.3,528.508,1012.3,528.508Z" transform="translate(-383.36 -161.343)" fill="#fff"/>
    <path id="Path_107" data-name="Path 107" d="M969.04,364.411s-11.733,22.335-10.37,30.824,5.238,18.1,3.369,20.341a6.907,6.907,0,0,1-5.495,2.744c-1.875.125-6.876,3.619-6.876,3.994s-4.62.375-8.752,2.125a54.49,54.49,0,0,1-10.233,2.744s-11.877-.375-12.983.75-2.244,7.858.125,13.227,5,9.377,6.989,10.108,14.6-3.494,24.836-4.494,21.341-9.108,21.341-9.108,12.233-4.376,14.377-11.733-2.619-47.8-2.619-47.8S979.148,359.292,969.04,364.411Z" transform="translate(-372.917 -172.938)" opacity="0.03"/>
    <path id="Path_108" data-name="Path 108" d="M966.651,361.412s-11.733,22.341-10.358,30.824,5.238,18.1,3.363,20.347a6.876,6.876,0,0,1-5.488,2.744c-1.875.125-6.876,3.619-6.876,3.994s-4.62.375-8.751,2.119a55.027,55.027,0,0,1-10.233,2.744s-11.877-.375-12.977.75-2.25,7.864.125,13.227,5,9.377,6.989,10.108,14.6-3.494,24.835-4.488,21.341-9.114,21.341-9.114,12.227-4.376,14.346-11.727-2.619-47.8-2.619-47.8S976.759,356.3,966.651,361.412Z" transform="translate(-372.028 -171.814)" opacity="0.03"/>
    <path id="Path_109" data-name="Path 109" d="M968.457,362.616S956.724,384.958,958.1,393.44s5.238,18.1,3.369,20.341a6.876,6.876,0,0,1-5.495,2.751c-1.875.125-6.876,3.619-6.876,3.988s-4.613.375-8.751,2.125a54.613,54.613,0,0,1-10.233,2.744s-11.877-.375-12.983.75-2.244,7.864.125,13.227,5,9.377,6.989,10.108,14.6-3.494,24.835-4.495,21.341-9.108,21.341-9.108,12.233-4.376,14.377-11.733-2.588-47.8-2.588-47.8S978.559,357.528,968.457,362.616Z" transform="translate(-372.703 -172.268)" fill="#fff"/>
    <path id="Path_110" data-name="Path 110" d="M995.51,458.665s-9.377-1.875-6.114,1.25,3.244,5.863,7.239,5.738S995.51,458.665,995.51,458.665Z" transform="translate(-400.012 -208.395)" opacity="0.1"/>
    <path id="Path_111" data-name="Path 111" d="M1024.276,566.58s-4.238,2.869,3.869,9.483S1024.276,566.58,1024.276,566.58Z" transform="translate(-412.931 -249.061)" opacity="0.1"/>
    <path id="Path_112" data-name="Path 112" d="M1011.891,604.31c0,.375-1.5,13.752,4.113,17.1S1011.891,604.31,1011.891,604.31Z" transform="translate(-408.635 -263.205)" opacity="0.1"/>
    <path id="Path_113" data-name="Path 113" d="M863.03,436.59c-4.526.156-14.3,1.538-9.233,11,4.482,8.37,12.014,2.775,16.253-1.469A15.972,15.972,0,0,0,863.03,436.59Z" transform="translate(-348.902 -200.328)" fill="#ffb0b1"/>
    <path id="Path_114" data-name="Path 114" d="M881.39,451Z" transform="translate(-359.779 -205.73)" fill="#ffb0b1"/>
    <path id="Path_115" data-name="Path 115" d="M880.74,451.594l.188-.194Z" transform="translate(-359.536 -205.88)" fill="#ffb0b1"/>
    <path id="Path_116" data-name="Path 116" d="M979.583,339.947c-4.8,3.282-8.826,6.051-9.614,6.626-2.15,1.594-6.251,10.952-8.9,15.728-2.107,3.844-8.951,4.832-11.533,5.076l.331-2.857c5.87-2.625,10.364-10.989,10.364-10.989l11.6-20.341,3.994,3.632Z" transform="translate(-385.328 -161.564)" opacity="0.1"/>
    <path id="Path_117" data-name="Path 117" d="M979.583,339.347c-4.8,3.282-8.826,6.051-9.614,6.632-2.15,1.588-6.251,10.946-8.9,15.721-2.107,3.844-8.951,4.832-11.533,5.076l.331-2.857c5.87-2.625,10.364-10.989,10.364-10.989l11.6-20.341,3.994,3.619S977.332,337.447,979.583,339.347Z" transform="translate(-385.328 -161.339)" fill="#dce7ff"/>
    <path id="Path_118" data-name="Path 118" d="M960.58,306.8a18.541,18.541,0,1,1-15.762-18.328A18.509,18.509,0,0,1,960.58,306.8Z" transform="translate(-375.564 -144.721)" fill="#ffb0b1"/>
    <path id="Path_119" data-name="Path 119" d="M993.743,369.156a16.478,16.478,0,0,1-5.982-6.426c-1.044-2.063-1.738-4.444-3.519-5.907-1.607-1.313-3.751-1.632-5.751-2.219-6.576-1.944-12.09-7.945-12.3-14.8-.1-3.226.906-6.445.45-9.639a10.675,10.675,0,0,0-2.088-4.97,17.119,17.119,0,0,0-1.807-1.944c-.875-.825-1.794-1.625-2.594-2.5a9.706,9.706,0,0,1-1.313-1.782,8.575,8.575,0,0,1-.719-1.656c-1.25-3.826-.112-8.364-1.488-12.233l-.075-.213c-.519-1.375-1.575-2.75-3.044-2.857s-2.725,1.113-4.126,1.656c-2.932,1.138-6.095-.8-8.539-2.775s-5.2-4.232-8.308-3.794c-2.057.294-3.682,1.694-5.576,2.419a7.819,7.819,0,0,1-1.319.381,18.534,18.534,0,0,1,35.737,6.907,18.347,18.347,0,0,1-.406,3.869c.031.088.062.169.1.256.725,1.875,1.544,3.8,2.263,5.463l3.532,3.2,3.751,3.126c4.895,4.126,13.352,11.389,17.715,15.834C992.18,342.482,993.38,357.7,993.743,369.156Z" transform="translate(-376.372 -144.72)" opacity="0.1"/>
    <path id="Path_120" data-name="Path 120" d="M924.333,279.566c.894-1.819,1.338-3.857,2.407-5.582a13.3,13.3,0,0,1,7.12-5.07c7.345-2.532,22.866-6.207,27.5,0a13.533,13.533,0,0,0,2.932,3.5,21.769,21.769,0,0,0,3.182,1.431c2.957,1.388,4.845,4.413,5.851,7.5s1.307,6.4,2.044,9.583a70.474,70.474,0,0,0,4.251,11.8c1.944,4.538,4.007,9.245,7.758,12.452,5.12,4.376,6.251,10.571,11,15.371,5.626,5.7,5.445,15.109,2.544,22.579a6.2,6.2,0,0,0-.663,3.051,5.981,5.981,0,0,0,1.656,2.825l3.076,3.469a17.294,17.294,0,0,1-18.9-8.714c-1.044-2.063-1.738-4.438-3.526-5.907-1.6-1.313-3.751-1.625-5.745-2.213-6.576-1.95-12.09-7.958-12.3-14.809-.1-3.219.906-6.439.45-9.627a10.628,10.628,0,0,0-2.094-5c-1.719-2.244-4.313-3.751-5.713-6.251-2.369-4.182-.569-9.614-2.275-14.1-.525-1.375-1.575-2.75-3.044-2.857s-2.725,1.113-4.132,1.657c-2.925,1.138-6.089-.794-8.533-2.775s-5.2-4.232-8.314-3.788c-2.057.288-3.676,1.688-5.57,2.419-1.4.538-4.238,1.019-5.463-.163C917.257,287.961,923.252,281.791,924.333,279.566Z" transform="translate(-373.955 -136.188)" fill="#591d4b"/>
    <path id="Path_121" data-name="Path 121" d="M987.756,355.343c-1.05-2.063-1.738-4.438-3.526-5.9-1.6-1.313-3.751-1.632-5.751-2.219-6.57-1.944-12.083-7.951-12.3-14.8-.1-3.219.906-6.445.456-9.633a10.689,10.689,0,0,0-2.094-4.97c-1.725-2.244-4.319-3.751-5.713-6.251-2.369-4.176-.569-9.608-2.282-14.1-.519-1.369-1.575-2.744-3.038-2.857s-2.732,1.119-4.132,1.663c-2.925,1.138-6.095-.8-8.533-2.775s-5.207-4.232-8.314-3.794c-2.057.294-3.682,1.694-5.57,2.419-1.4.538-4.245,1.025-5.47-.156-2.575-2.5,3.419-8.658,4.494-10.871.894-1.825,1.338-3.857,2.413-5.582.056-.094.119-.188.181-.281a9.927,9.927,0,0,0-2.057,2.338c-1.069,1.725-1.513,3.751-2.407,5.582-1.081,2.213-7.076,8.389-4.494,10.871,1.25,1.188,4.063.7,5.463.163,1.875-.731,3.513-2.132,5.57-2.419,3.126-.444,5.876,1.813,8.314,3.788s5.626,3.913,8.539,2.775c1.4-.544,2.625-1.769,4.126-1.657s2.5,1.482,3.044,2.857c1.707,4.488-.094,9.92,2.275,14.1,1.4,2.457,3.994,3.994,5.713,6.251a10.626,10.626,0,0,1,2.094,5c.456,3.188-.55,6.407-.45,9.627.206,6.876,5.72,12.858,12.3,14.809,1.982.588,4.144.9,5.745,2.213,1.794,1.469,2.5,3.844,3.526,5.907a17.294,17.294,0,0,0,18.9,8.714l-1.45-1.638A17.481,17.481,0,0,1,987.756,355.343Z" transform="translate(-373.874 -139.835)" opacity="0.1"/>
    <path id="Path_122" data-name="Path 122" d="M954.894,354.207c-.819,1.25-3.163,7.651-5.12,13.24-1.832-.713-3.494-5.257-3.494-5.257l9.764-13.89C957.044,349.675,956.388,351.957,954.894,354.207Z" transform="translate(-384.106 -167.228)" opacity="0.1"/>
    <path id="Path_123" data-name="Path 123" d="M955.494,353.611c-.819,1.25-3.163,7.651-5.12,13.24-1.832-.706-3.494-5.257-3.494-5.257l9.764-13.884C957.644,349.079,956.988,351.367,955.494,353.611Z" transform="translate(-384.331 -167.007)" fill="#dce7ff"/>
    <path id="Path_124" data-name="Path 124" d="M866.548,447.824l-5.413-17.072a1.594,1.594,0,0,1,1.038-2.007h0a1.6,1.6,0,0,1,2,1.038l5.413,17.053-.538,3.569Z" transform="translate(-352.157 -197.36)" fill="#be8b87"/>
    <path id="Path_125" data-name="Path 125" d="M861.8,429.267h0a1.6,1.6,0,0,1,2.006,1.038l5.413,17.053-.406,2.675.394.413.538-3.569L864.3,429.824a1.6,1.6,0,0,0-2-1.038h0a1.6,1.6,0,0,0-.831.625,2.18,2.18,0,0,1,.331-.144Z" transform="translate(-352.311 -197.375)" fill="#fff" opacity="0.1"/>
    <path id="Path_126" data-name="Path 126" d="M822.6,400.1l3.038-.963-.444,2.925-.094.644-.888-.925Z" transform="translate(-308.209 -149.638)" fill="#efc8c4"/>
    <path id="Path_127" data-name="Path 127" d="M872.42,461.877a.624.624,0,0,1,.194-.163.275.275,0,0,1,.294,0,.773.773,0,0,1,.106.169.538.538,0,0,0,.388.256l-.094.625Z" transform="translate(-356.416 -209.731)" fill="#727a9c"/>
    <path id="Path_128" data-name="Path 128" d="M861.13,441.7s10.858-.062,8.3,4.557a9.766,9.766,0,0,1-6.551,5.176Z" transform="translate(-352.184 -202.244)" fill="#ffb0b1"/>
    <path id="Path_129" data-name="Path 129" d="M667.433,110.05h-.469a53.468,53.468,0,0,0-44.639,24.435,53.467,53.467,0,0,0-44.639-24.435h-.469a53.134,53.134,0,0,0-52.627,53.1c0,17.384,7.614,42.051,22.46,62.348,28.286,38.675,75.275,72.512,75.275,72.512s46.989-33.831,75.269-72.512c14.853-20.3,22.46-44.964,22.46-62.348a53.134,53.134,0,0,0-52.621-53.1Zm-6.707,118.426a10.533,10.533,0,0,1-9.8-6.764H639.778a3.526,3.526,0,0,1-3.319-2.4l-3.426-10.32-10.839,37.875a3.507,3.507,0,0,1-3.363,2.532h-.219a3.463,3.463,0,0,1-3.251-2.9l-11.171-67.186-8.164,39.757a3.482,3.482,0,0,1-3.382,2.644H576.936a3.494,3.494,0,1,1,0-6.982h12.958l11.564-53.453a3.507,3.507,0,0,1,6.876.288L619.743,230.1l9.714-33.887a3.438,3.438,0,0,1,3.269-2.5h.069a3.488,3.488,0,0,1,3.313,2.4l6.195,18.634h8.489a10.477,10.477,0,1,1,9.952,13.752Z" transform="translate(-226.016 -77.91)" fill="#408f90"/>
  </g>
</svg>
